<svg preserveAspectRatio="none" width="100%" height="100%" overflow="visible" style="display: block;" viewBox="0 0 311.958 69" fill="none" xmlns="http://www.w3.org/2000/svg">
<g id="Union" opacity="0.5" filter="url(#filter0_d_0_4)">
<mask id="path-1-inside-1_0_4" fill="white">
<path d="M285 4C291.627 4 297 9.37258 297 16V28L303.488 32.0547C304.15 32.4686 304.104 33.4486 303.405 33.7979L297 37V49C297 55.6274 291.627 61 285 61H16C9.37258 61 4 55.6274 4 49V16C4 9.37258 9.37258 4 16 4H285Z"/>
</mask>
<path d="M285 4C291.627 4 297 9.37258 297 16V28L303.488 32.0547C304.15 32.4686 304.104 33.4486 303.405 33.7979L297 37V49C297 55.6274 291.627 61 285 61H16C9.37258 61 4 55.6274 4 49V16C4 9.37258 9.37258 4 16 4H285Z" fill="var(--fill-0, white)"/>
<path d="M297 16H297.5H297ZM297 28H296.5V28.2771L296.735 28.424L297 28ZM303.488 32.0547L303.753 31.6307L303.753 31.6307L303.488 32.0547ZM303.405 33.7979L303.629 34.2451L303.629 34.2451L303.405 33.7979ZM297 37L296.776 36.5528L296.5 36.691V37H297ZM285 61V61.5V61.5V61ZM4 49H3.5H4ZM16 4V3.5V3.5V4ZM285 4V4.5C291.351 4.5 296.5 9.64873 296.5 16H297H297.5C297.5 9.09644 291.904 3.5 285 3.5V4ZM297 16H296.5V28H297H297.5V16H297ZM297 28L296.735 28.424L303.223 32.4787L303.488 32.0547L303.753 31.6307L297.265 27.576L297 28ZM303.488 32.0547L303.223 32.4787C303.554 32.6856 303.531 33.176 303.182 33.3506L303.405 33.7979L303.629 34.2451C304.676 33.7213 304.747 32.2517 303.753 31.6307L303.488 32.0547ZM303.405 33.7979L303.182 33.3506L296.776 36.5528L297 37L297.224 37.4472L303.629 34.2451L303.405 33.7979ZM297 37H296.5V49H297H297.5V37H297ZM297 49H296.5C296.5 55.3513 291.351 60.5 285 60.5V61V61.5C291.904 61.5 297.5 55.9036 297.5 49H297ZM285 61V60.5H16V61V61.5H285V61ZM16 61V60.5C9.64873 60.5 4.5 55.3513 4.5 49H4H3.5C3.5 55.9036 9.09644 61.5 16 61.5V61ZM4 49H4.5V16H4H3.5V49H4ZM4 16H4.5C4.5 9.64873 9.64873 4.5 16 4.5V4V3.5C9.09644 3.5 3.5 9.09644 3.5 16H4ZM16 4V4.5H285V4V3.5H16V4Z" fill="var(--stroke-0, black)" fill-opacity="0.2" mask="url(#path-1-inside-1_0_4)"/>
</g>
<defs>
<filter id="filter0_d_0_4" x="0" y="0" width="311.958" height="69" filterUnits="userSpaceOnUse" color-interpolation-filters="sRGB">
<feFlood flood-opacity="0" result="BackgroundImageFix"/>
<feColorMatrix in="SourceAlpha" type="matrix" values="0 0 0 0 0 0 0 0 0 0 0 0 0 0 0 0 0 0 127 0" result="hardAlpha"/>
<feOffset dx="2" dy="2"/>
<feGaussianBlur stdDeviation="3"/>
<feComposite in2="hardAlpha" operator="out"/>
<feColorMatrix type="matrix" values="0 0 0 0 0 0 0 0 0 0 0 0 0 0 0 0 0 0 0.1 0"/>
<feBlend mode="normal" in2="BackgroundImageFix" result="effect1_dropShadow_0_4"/>
<feBlend mode="normal" in="SourceGraphic" in2="effect1_dropShadow_0_4" result="shape"/>
</filter>
</defs>
</svg>
