<svg preserveAspectRatio="none" width="100%" height="100%" overflow="visible" style="display: block;" viewBox="0 0 20 20" fill="none" xmlns="http://www.w3.org/2000/svg">
<g id="streamline:linkedin">
<path id="Vector" d="M6.22462 3.55935C6.22801 3.98492 6.06142 4.3947 5.76087 4.70009C5.46032 5.00548 5.04997 5.18194 4.61855 5.1913C4.18803 5.17588 3.77998 4.99791 3.47875 4.69417C3.17751 4.39044 3.00612 3.98417 3 3.55935C3.01861 3.14533 3.19622 2.7538 3.49681 2.46421C3.7974 2.17462 4.19844 2.00866 4.61855 2C5.03743 2.00882 5.43705 2.1752 5.73561 2.46508C6.03418 2.75496 6.20912 3.14643 6.22462 3.55935ZM3.17346 8.09092C3.17346 7.1531 3.7787 7.29956 4.61855 7.29956C5.4584 7.29956 6.05116 7.1531 6.05116 8.09092V17.2279C6.05116 18.1781 5.44592 17.9836 4.61855 17.9836C3.79118 17.9836 3.17346 18.1781 3.17346 17.2279V8.09092ZM8.547 8.09215C8.547 7.56786 8.74418 7.37217 9.05241 7.31187C9.36065 7.25156 10.4251 7.31187 10.7945 7.31187C11.1651 7.31187 11.3136 7.90877 11.3012 8.35922C11.6185 7.94015 12.0394 7.60818 12.5237 7.3949C13.008 7.18162 13.5395 7.09414 14.0678 7.14079C14.5866 7.10955 15.1063 7.18628 15.5931 7.36601C16.0799 7.54573 16.5229 7.82443 16.8934 8.184C17.2639 8.54357 17.5535 8.97597 17.7435 9.45313C17.9335 9.93028 18.0196 10.4415 17.9963 10.9536V17.191C17.9963 18.1411 17.4035 17.9467 16.5624 17.9467C15.7213 17.9467 15.1298 18.1411 15.1298 17.191V12.3185C15.1515 12.0678 15.1183 11.8154 15.0324 11.5784C14.9465 11.3414 14.8098 11.1255 14.6318 10.9452C14.4538 10.765 14.2385 10.6246 14.0005 10.5337C13.7626 10.4427 13.5076 10.4034 13.2529 10.4182C12.9992 10.4117 12.7469 10.4583 12.5129 10.5552C12.2788 10.652 12.0683 10.7969 11.8953 10.98C11.7223 11.1632 11.5908 11.3806 11.5094 11.6177C11.4281 11.8548 11.3988 12.1063 11.4235 12.3554V17.2279C11.4235 18.1781 10.8182 17.9836 9.97837 17.9836C9.13852 17.9836 8.54576 18.1781 8.54576 17.2279L8.547 8.09215Z" stroke="var(--stroke-0, white)" stroke-linecap="round" stroke-linejoin="round"/>
</g>
</svg>
