<svg preserveAspectRatio="none" width="100%" height="100%" overflow="visible" style="display: block;" viewBox="0 0 20 20" fill="none" xmlns="http://www.w3.org/2000/svg">
<g id="ic:baseline-tiktok">
<path id="Vector" d="M13.8333 4.85C13.2638 4.19961 12.9499 3.3645 12.95 2.5H10.375V12.8333C10.3556 13.3927 10.1196 13.9226 9.71692 14.3112C9.31425 14.6999 8.77633 14.917 8.21667 14.9167C7.03333 14.9167 6.05 13.95 6.05 12.75C6.05 11.3167 7.43333 10.2417 8.85833 10.6833V8.05C5.98333 7.66667 3.46667 9.9 3.46667 12.75C3.46667 15.525 5.76667 17.5 8.20833 17.5C10.825 17.5 12.95 15.375 12.95 12.75V7.50833C13.9942 8.25821 15.2478 8.66054 16.5333 8.65833V6.08333C16.5333 6.08333 14.9667 6.15833 13.8333 4.85Z" fill="var(--fill-0, white)"/>
</g>
</svg>
