<svg preserveAspectRatio="none" width="100%" height="100%" overflow="visible" style="display: block;" viewBox="0 0 12.3333 13.75" fill="none" xmlns="http://www.w3.org/2000/svg">
<g id="Group">
<path id="Vector" d="M0.500001 7.58333C0.500001 6.24742 0.500001 5.58017 0.915085 5.16508C1.33017 4.75 1.99742 4.75 3.33333 4.75H9C10.3359 4.75 11.0032 4.75 11.4183 5.16508C11.8333 5.58017 11.8333 6.24742 11.8333 7.58333V9C11.8333 11.0032 11.8333 12.0055 11.2107 12.6274C10.5888 13.25 9.5865 13.25 7.58334 13.25H4.75C2.74683 13.25 1.74454 13.25 1.12263 12.6274C0.500001 12.0055 0.500001 11.0032 0.500001 9V7.58333Z" stroke="var(--stroke-0, #A64129)"/>
<path id="Vector_2" d="M9.00065 4.04167V3.33333C9.00065 2.58189 8.70214 1.86122 8.17079 1.32986C7.63944 0.798511 6.91877 0.5 6.16732 0.5C5.41587 0.5 4.6952 0.798511 4.16385 1.32986C3.6325 1.86122 3.33399 2.58189 3.33399 3.33333V4.04167" stroke="var(--stroke-0, #A64129)" stroke-linecap="round"/>
<path id="Vector_3" d="M6.16667 10.4163C6.94907 10.4163 7.58333 9.78208 7.58333 8.99967C7.58333 8.21727 6.94907 7.58301 6.16667 7.58301C5.38426 7.58301 4.75 8.21727 4.75 8.99967C4.75 9.78208 5.38426 10.4163 6.16667 10.4163Z" fill="var(--fill-0, #A64129)"/>
</g>
</svg>
