<svg preserveAspectRatio="none" width="100%" height="100%" overflow="visible" style="display: block;" viewBox="0 0 20 20" fill="none" xmlns="http://www.w3.org/2000/svg">
<g id="line-md:instagram">
<g id="Group">
<path id="Vector" d="M13.3333 2.5C15.6333 2.5 17.5 4.36667 17.5 6.66667V13.3333C17.5 15.6333 15.6333 17.5 13.3333 17.5H6.66667C4.36667 17.5 2.5 15.6333 2.5 13.3333V6.66667C2.5 4.36667 4.36667 2.5 6.66667 2.5H10H13.3333Z" stroke="var(--stroke-0, white)" stroke-linecap="round" stroke-linejoin="round"/>
<path id="Vector_2" d="M9.99935 6.66699C11.841 6.66699 13.3327 8.15866 13.3327 10.0003C13.3327 11.842 11.841 13.3337 9.99935 13.3337C8.15768 13.3337 6.66602 11.842 6.66602 10.0003C6.66602 8.15866 8.15768 6.66699 9.99935 6.66699Z" stroke="var(--stroke-0, white)" stroke-linecap="round" stroke-linejoin="round"/>
</g>
<path id="Vector_3" d="M14.1673 6.66667C14.6276 6.66667 15.0007 6.29357 15.0007 5.83333C15.0007 5.3731 14.6276 5 14.1673 5C13.7071 5 13.334 5.3731 13.334 5.83333C13.334 6.29357 13.7071 6.66667 14.1673 6.66667Z" fill="var(--fill-0, white)"/>
</g>
</svg>
