<svg preserveAspectRatio="none" width="100%" height="100%" overflow="visible" style="display: block;" viewBox="0 0 20 20" fill="none" xmlns="http://www.w3.org/2000/svg">
<g id="si:youtube-line">
<path id="Vector" d="M18.784 5.34967C18.6799 4.95991 18.4755 4.60423 18.1911 4.31809C17.9067 4.03195 17.5523 3.82533 17.1631 3.71884C15.734 3.33301 10.0007 3.33301 10.0007 3.33301C10.0007 3.33301 4.26732 3.33301 2.83815 3.71884C2.44903 3.82533 2.09462 4.03195 1.81023 4.31809C1.52584 4.60423 1.32142 4.95991 1.21732 5.34967C0.833984 6.78967 0.833984 9.79134 0.833984 9.79134C0.833984 9.79134 0.833984 12.793 1.21732 14.233C1.32129 14.6229 1.52566 14.9788 1.81006 15.2651C2.09445 15.5514 2.44893 15.7581 2.83815 15.8647C4.26815 16.2497 10.0007 16.2497 10.0007 16.2497C10.0007 16.2497 15.734 16.2497 17.1631 15.8647C17.5524 15.7581 17.9068 15.5514 18.1912 15.2651C18.4756 14.9788 18.68 14.6229 18.784 14.233C19.1673 12.7947 19.1673 9.79134 19.1673 9.79134C19.1673 9.79134 19.1673 6.78967 18.784 5.34967ZM8.12565 12.5172V7.06634L12.9173 9.79217L8.12565 12.5172Z" stroke="var(--stroke-0, white)" stroke-miterlimit="10" stroke-linejoin="round"/>
</g>
</svg>
